<mxfile host="Electron" modified="2024-11-21T19:54:52.009Z" agent="Mozilla/5.0 (Windows NT 10.0; Win64; x64) AppleWebKit/537.36 (KHTML, like Gecko) draw.io/24.4.0 Chrome/120.0.6099.109 Electron/28.1.0 Safari/537.36" etag="jTOJ1NsOe1WOK_cHTG2c" version="24.4.0" type="device">
  <diagram name="Page-1" id="RnHXG6XdpAVj0lNkg6kS">
    <mxGraphModel dx="880" dy="532" grid="1" gridSize="10" guides="1" tooltips="1" connect="1" arrows="1" fold="1" page="1" pageScale="1" pageWidth="1100" pageHeight="850" math="0" shadow="0">
      <root>
        <mxCell id="0" />
        <mxCell id="1" parent="0" />
        <mxCell id="lvCPjjkiVzpjhAXA9py5-6" style="edgeStyle=orthogonalEdgeStyle;rounded=0;orthogonalLoop=1;jettySize=auto;html=1;exitX=0.25;exitY=0;exitDx=0;exitDy=0;entryX=0.25;entryY=1;entryDx=0;entryDy=0;" parent="1" source="lvCPjjkiVzpjhAXA9py5-2" target="lvCPjjkiVzpjhAXA9py5-3" edge="1">
          <mxGeometry relative="1" as="geometry" />
        </mxCell>
        <mxCell id="lvCPjjkiVzpjhAXA9py5-2" value="1" style="swimlane;fontStyle=0;childLayout=stackLayout;horizontal=1;startSize=30;fillColor=#ffffff;horizontalStack=0;resizeParent=1;resizeParentMax=0;resizeLast=0;collapsible=0;marginBottom=0;swimlaneFillColor=#ffffff;rounded=1;" parent="1" vertex="1">
          <mxGeometry x="400" y="250" width="120" height="100" as="geometry" />
        </mxCell>
        <mxCell id="lvCPjjkiVzpjhAXA9py5-1" value="LOGIN" style="text;html=1;align=center;verticalAlign=middle;whiteSpace=wrap;rounded=0;" parent="lvCPjjkiVzpjhAXA9py5-2" vertex="1">
          <mxGeometry y="30" width="120" height="70" as="geometry" />
        </mxCell>
        <mxCell id="lvCPjjkiVzpjhAXA9py5-4" style="edgeStyle=orthogonalEdgeStyle;rounded=0;orthogonalLoop=1;jettySize=auto;html=1;exitX=0.75;exitY=1;exitDx=0;exitDy=0;entryX=0.75;entryY=0;entryDx=0;entryDy=0;" parent="1" source="lvCPjjkiVzpjhAXA9py5-3" target="lvCPjjkiVzpjhAXA9py5-2" edge="1">
          <mxGeometry relative="1" as="geometry" />
        </mxCell>
        <mxCell id="lvCPjjkiVzpjhAXA9py5-3" value="ADMIN" style="html=1;dashed=0;whiteSpace=wrap;" parent="1" vertex="1">
          <mxGeometry x="400" y="40" width="120" height="90" as="geometry" />
        </mxCell>
        <mxCell id="lvCPjjkiVzpjhAXA9py5-5" value="Username&lt;div&gt;and&lt;br&gt;Password&lt;/div&gt;" style="text;html=1;align=center;verticalAlign=middle;whiteSpace=wrap;rounded=0;" parent="1" vertex="1">
          <mxGeometry x="490" y="170" width="60" height="50" as="geometry" />
        </mxCell>
        <mxCell id="lvCPjjkiVzpjhAXA9py5-7" value="Login&amp;nbsp;&lt;div&gt;error&amp;nbsp;&lt;/div&gt;&lt;div&gt;message&lt;/div&gt;" style="text;html=1;align=center;verticalAlign=middle;whiteSpace=wrap;rounded=0;" parent="1" vertex="1">
          <mxGeometry x="370" y="170" width="60" height="50" as="geometry" />
        </mxCell>
        <mxCell id="lvCPjjkiVzpjhAXA9py5-11" style="edgeStyle=orthogonalEdgeStyle;rounded=0;orthogonalLoop=1;jettySize=auto;html=1;entryX=1;entryY=0.5;entryDx=0;entryDy=0;exitX=-0.002;exitY=0.86;exitDx=0;exitDy=0;exitPerimeter=0;" parent="1" source="lvCPjjkiVzpjhAXA9py5-8" target="lvCPjjkiVzpjhAXA9py5-1" edge="1">
          <mxGeometry relative="1" as="geometry" />
        </mxCell>
        <mxCell id="lvCPjjkiVzpjhAXA9py5-8" value="D1" style="html=1;dashed=0;whiteSpace=wrap;shape=mxgraph.dfd.dataStoreID;align=left;spacingLeft=3;points=[[0,0],[0.5,0],[1,0],[0,0.5],[1,0.5],[0,1],[0.5,1],[1,1]];" parent="1" vertex="1">
          <mxGeometry x="640" y="289" width="100" height="30" as="geometry" />
        </mxCell>
        <mxCell id="lvCPjjkiVzpjhAXA9py5-9" value="Accounts" style="text;html=1;align=center;verticalAlign=middle;whiteSpace=wrap;rounded=0;" parent="1" vertex="1">
          <mxGeometry x="670" y="289" width="60" height="30" as="geometry" />
        </mxCell>
        <mxCell id="lvCPjjkiVzpjhAXA9py5-10" style="edgeStyle=orthogonalEdgeStyle;rounded=0;orthogonalLoop=1;jettySize=auto;html=1;exitX=1;exitY=0.25;exitDx=0;exitDy=0;entryX=0;entryY=0.294;entryDx=0;entryDy=0;entryPerimeter=0;" parent="1" source="lvCPjjkiVzpjhAXA9py5-1" target="lvCPjjkiVzpjhAXA9py5-8" edge="1">
          <mxGeometry relative="1" as="geometry">
            <mxPoint x="620" y="297.55555555555554" as="targetPoint" />
          </mxGeometry>
        </mxCell>
        <mxCell id="lvCPjjkiVzpjhAXA9py5-14" value="2" style="swimlane;fontStyle=0;childLayout=stackLayout;horizontal=1;startSize=30;fillColor=#ffffff;horizontalStack=0;resizeParent=1;resizeParentMax=0;resizeLast=0;collapsible=0;marginBottom=0;swimlaneFillColor=#ffffff;rounded=1;" parent="1" vertex="1">
          <mxGeometry x="400" y="440" width="120" height="100" as="geometry" />
        </mxCell>
        <mxCell id="lvCPjjkiVzpjhAXA9py5-15" value="Display Dashboard" style="text;html=1;align=center;verticalAlign=middle;whiteSpace=wrap;rounded=0;" parent="lvCPjjkiVzpjhAXA9py5-14" vertex="1">
          <mxGeometry y="30" width="120" height="70" as="geometry" />
        </mxCell>
        <mxCell id="lvCPjjkiVzpjhAXA9py5-16" style="edgeStyle=orthogonalEdgeStyle;rounded=0;orthogonalLoop=1;jettySize=auto;html=1;" parent="1" source="lvCPjjkiVzpjhAXA9py5-1" target="lvCPjjkiVzpjhAXA9py5-14" edge="1">
          <mxGeometry relative="1" as="geometry" />
        </mxCell>
        <mxCell id="lvCPjjkiVzpjhAXA9py5-18" value="&lt;div style=&quot;text-align: center;&quot;&gt;&lt;span style=&quot;background-color: initial;&quot;&gt;Verified&lt;br&gt;&lt;/span&gt;&lt;/div&gt;&lt;div style=&quot;text-align: center;&quot;&gt;&lt;span style=&quot;background-color: initial;&quot;&gt;Account&lt;/span&gt;&lt;/div&gt;" style="text;whiteSpace=wrap;html=1;" parent="1" vertex="1">
          <mxGeometry x="470" y="370" width="50" height="40" as="geometry" />
        </mxCell>
        <mxCell id="lvCPjjkiVzpjhAXA9py5-19" style="edgeStyle=orthogonalEdgeStyle;rounded=0;orthogonalLoop=1;jettySize=auto;html=1;entryX=0;entryY=0.5;entryDx=0;entryDy=0;" parent="1" source="lvCPjjkiVzpjhAXA9py5-15" target="lvCPjjkiVzpjhAXA9py5-3" edge="1">
          <mxGeometry relative="1" as="geometry">
            <Array as="points">
              <mxPoint x="310" y="505" />
              <mxPoint x="310" y="85" />
            </Array>
          </mxGeometry>
        </mxCell>
        <mxCell id="lvCPjjkiVzpjhAXA9py5-20" value="Login&amp;nbsp;&lt;div&gt;confirmation&amp;nbsp;&lt;/div&gt;&lt;div&gt;message&lt;/div&gt;" style="text;html=1;align=center;verticalAlign=middle;whiteSpace=wrap;rounded=0;" parent="1" vertex="1">
          <mxGeometry x="310" y="450" width="80" height="50" as="geometry" />
        </mxCell>
        <mxCell id="np8fw5zsWob5DhphGpc2-1" value="Username,&lt;div&gt;Password&lt;/div&gt;" style="text;html=1;align=center;verticalAlign=middle;whiteSpace=wrap;rounded=0;" parent="1" vertex="1">
          <mxGeometry x="529" y="251" width="110" height="50" as="geometry" />
        </mxCell>
        <mxCell id="np8fw5zsWob5DhphGpc2-2" value="Username,&lt;div&gt;Password&lt;/div&gt;" style="text;html=1;align=center;verticalAlign=middle;whiteSpace=wrap;rounded=0;" parent="1" vertex="1">
          <mxGeometry x="529" y="310" width="110" height="50" as="geometry" />
        </mxCell>
      </root>
    </mxGraphModel>
  </diagram>
</mxfile>
